<?xml version="1.0" encoding="iso-8859-1"?>
<!-- Generator: Adobe Illustrator 19.0.0, SVG Export Plug-In . SVG Version: 6.00 Build 0)  -->
<svg version="1.1" id="Layer_1" xmlns="http://www.w3.org/2000/svg" xmlns:xlink="http://www.w3.org/1999/xlink" x="0px" y="0px"
	 viewBox="0 0 512 512" style="enable-background:new 0 0 512 512;" xml:space="preserve">
<g>
	<g>
		<path d="M501.804,203.71c1.483-16.259,1.544-57.54-29.528-91.694c-31.746-34.896-73.368-38.408-94.14-37.643
			C352.919,30.14,306.73,2.312,257.241,2.312c-0.414,0-0.826,0.002-1.24,0.006c-0.418-0.003-0.824-0.006-1.24-0.006
			c-49.485,0-95.681,27.83-120.896,72.062c-20.778-0.768-62.398,2.751-94.14,37.643C8.655,146.17,8.715,187.453,10.197,203.711
			c-21.2,45.893-8.552,101.352,30.576,130.917c21.804,16.475,49.349,23.33,77.56,19.314c13.302-1.896,25.901-6.102,37.362-12.34
			c8.627,8.298,21.809,26.115,21.809,57.509v110.578h78.497h78.496V399.11c0-31.393,13.182-49.21,21.809-57.509
			c11.461,6.237,24.06,10.443,37.361,12.34c5.27,0.75,10.516,1.122,15.708,1.122c22.594,0,44.122-7.038,61.852-20.436
			C510.355,305.062,523.002,249.603,501.804,203.71z M301.094,399.109v77.175h-45.093h-45.094v-77.175
			c0-26.296-7.013-46.13-15.57-60.554c11.953,5.752,26.443,10.065,43.963,11.76v56.828h33.403v-56.828
			c17.52-1.695,32.01-6.008,43.961-11.76C308.107,352.979,301.094,372.813,301.094,399.109z M451.089,307.976
			c-14.654,11.071-33.377,15.645-52.71,12.895c-15.108-2.153-28.916-8.576-40.115-18.451c14.383-21.729,16.717-42.477,16.942-44.848
			l-33.255-3.144c-0.015,0.153-1.743,15.638-12.649,31.189c-14.938,21.297-39.599,32.095-73.303,32.095
			c-33.113,0-57.516-10.435-72.53-31.015c-11.516-15.787-13.415-32.217-13.432-32.381l0.011,0.112l-33.255,3.144
			c0.225,2.37,2.559,23.119,16.942,44.848c-11.199,9.875-25.008,16.298-40.115,18.452c-19.337,2.752-38.058-1.824-52.71-12.895
			c-27.642-20.887-35.701-61.126-18.746-93.603l2.534-4.855l-0.833-5.412c-1.032-6.715-4.894-41.629,20.565-69.613
			c30.182-33.176,74.526-26.331,76.397-26.029l12.468,2.047l5.36-11.442c18.234-38.922,56.328-63.784,97.162-63.35L256,35.725
			l0.179-0.002c0.356-0.003,0.707-0.006,1.062-0.006c40.387,0,78.026,24.773,96.101,63.354l5.359,11.442l12.468-2.047
			c1.872-0.306,46.217-7.145,76.397,26.029c25.461,27.988,21.598,62.896,20.566,69.61l-0.833,5.414l2.534,4.856
			C486.79,246.85,478.732,287.09,451.089,307.976z"/>
	</g>
</g>
<g>
</g>
<g>
</g>
<g>
</g>
<g>
</g>
<g>
</g>
<g>
</g>
<g>
</g>
<g>
</g>
<g>
</g>
<g>
</g>
<g>
</g>
<g>
</g>
<g>
</g>
<g>
</g>
<g>
</g>
</svg>
