<?xml version="1.0" encoding="iso-8859-1"?>
<!-- Generator: Adobe Illustrator 18.0.0, SVG Export Plug-In . SVG Version: 6.00 Build 0)  -->
<!DOCTYPE svg PUBLIC "-//W3C//DTD SVG 1.1//EN" "http://www.w3.org/Graphics/SVG/1.1/DTD/svg11.dtd">
<svg version="1.1" id="Capa_1" xmlns="http://www.w3.org/2000/svg" xmlns:xlink="http://www.w3.org/1999/xlink" x="0px" y="0px"
	 viewBox="0 0 319.834 319.834" style="enable-background:new 0 0 319.834 319.834;" xml:space="preserve">
<g>
	<g>
		<path d="M308.343,144.89c2.242-35.67-3.76-62.199-17.868-78.91c-9.198-10.897-21.399-17.15-36.279-18.599
			c-25.21-20.656-56.293-31.561-90.043-31.561c-32.232,0-62.63,10.369-88.024,30.005c-7.706,1.776-34.085,9.02-41.013,26.213
			c-0.194,0.48-0.338,0.98-0.429,1.491l-3.342,18.817c-4.97,2.566-16.546,8.029-26.963,12.791C1.712,106.358,0,109.023,0,111.959
			c0,75.801,17.208,127.659,52.606,158.537c34.441,30.043,80.156,33.518,111.546,33.518c51.154,0,90.916-15.358,118.183-45.65
			c23.015-25.566,35.979-61.093,37.492-102.743C320.015,150.354,316.264,147.568,308.343,144.89z M243.371,86.781
			c2.605-11.138,3.956-16.835,10.628-24.348c5.392,0.607,16.174,2.752,25.015,13.224c11.271,13.351,16.214,36.583,14.406,67.436
			c-3.443-0.386-6.977-0.58-10.72-0.58c-18.739,0-36.965,5.294-52.708,15.309c-11.736,7.468-21.714,17.289-29.329,28.793
			c-8.289-10.965-18.768-20.064-30.865-26.757c-3.73-16.293-13.542-35.838-28.844-51.575c14.835-11.712,31.914-17.224,53.265-17.224
			c12.875,0,25.337,2.688,37.042,7.987c2.024,0.916,4.355,0.889,6.357-0.079c2.003-0.968,3.473-2.773,4.013-4.931
			C242.283,91.428,242.846,89.024,243.371,86.781z M164.152,30.82c28.713,0,54.274,8.305,76.105,24.691
			c-6.811,8.764-8.852,16.602-11.176,26.501c-11.179-3.954-22.869-5.954-34.863-5.954c-10.326,0-19.934,1.189-28.902,3.576
			c-7.579-19.993-24.646-32.25-49.732-35.57c-2.404-0.318-4.775-0.536-7.091-0.679C125.697,35.127,144.54,30.82,164.152,30.82z
			 M49.3,77.031c4.094-8.459,21.385-14.823,31.574-16.889c0.027-0.006,0.054-0.016,0.081-0.021c0.024-0.005,0.049-0.005,0.074-0.011
			c0.576-0.128,55.721-11.92,70.131,24.552c-7.688,3.449-14.863,7.933-21.564,13.504c-4.566-3.497-9.479-6.645-14.742-9.308
			c-15.148-7.659-38.341-13.856-66.932-4.065L49.3,77.031z M201.451,285.142c-0.111,0.195-0.208,0.396-0.3,0.597
			c-11.115,2.108-23.396,3.275-36.999,3.275c-12.708,0-27.934-0.596-43.61-3.519c-4.39-4.332-17.78-18.472-27.291-38.425
			c-1.132-2.375-2.157-4.741-3.099-7.102c11.805-5.202,32.594-19.373,36.397-55.397c0.435-4.12-2.552-7.812-6.671-8.247
			c-4.142-0.41-7.811,2.554-8.247,6.671c-2.871,27.186-17.39,38.305-26.071,42.581c-5.659-23.812-1.383-46.74,12.829-68.4
			c2.273-3.463,1.308-8.112-2.156-10.385c-3.463-2.272-8.112-1.309-10.385,2.156c-6.089,9.28-10.598,18.877-13.535,28.696
			c-5.712-8.041-10.694-21.02-2.114-37.315c1.931-3.665,0.523-8.2-3.142-10.131c-3.664-1.931-8.2-0.522-10.131,3.143
			c-10.789,20.489-6,37.334-0.082,47.855c3.837,6.824,8.634,11.847,11.843,14.766c-1.865,18.808,1.791,38.196,11.022,57.563
			c4.577,9.603,9.926,17.954,14.938,24.752c-11.362-4.388-22.359-10.517-32.182-19.084c-31.217-27.23-46.755-73.85-47.443-142.43
			c17.006-7.804,24.024-11.234,27.17-13.419c22.765-11.006,45.532-11.395,65.891-1.1c27.425,13.869,43.946,42.845,47.691,63.898
			c0.413,2.322,1.895,4.314,3.999,5.379c14.629,7.398,26.4,18.862,35.454,32.458C195.239,203.994,224.205,245.056,201.451,285.142z
			 M266.497,253.178c6.422-17.434,12.133-42.004,10.123-71.772c-0.279-4.133-3.864-7.229-7.988-6.979
			c-4.133,0.279-7.257,3.855-6.978,7.988c0.658,9.745,0.381,18.891-0.5,27.362c-1.698,0.018-3.665-0.257-5.392-1.272
			c-3.057-1.798-5.11-5.757-6.105-11.767c-0.676-4.088-4.536-6.85-8.623-6.176c-4.087,0.676-6.852,4.537-6.176,8.623
			c1.754,10.603,6.228,18.089,13.297,22.248c3.636,2.139,7.372,3.023,10.727,3.272c-5.175,25.706-15.224,42.812-18.18,47.444
			c-6.275,3.368-13.167,6.322-20.711,8.787c13.979-36.424-3.125-69.305-10.164-80.526c14.725-26.564,42.262-42.898,72.872-42.898
			c7.989,0,14.652,0.948,21.848,3.139C302.907,185.408,295.379,224.605,266.497,253.178z"/>
	</g>
</g>
<g>
</g>
<g>
</g>
<g>
</g>
<g>
</g>
<g>
</g>
<g>
</g>
<g>
</g>
<g>
</g>
<g>
</g>
<g>
</g>
<g>
</g>
<g>
</g>
<g>
</g>
<g>
</g>
<g>
</g>
</svg>
