<?xml version="1.0" encoding="iso-8859-1"?>
<!-- Generator: Adobe Illustrator 19.0.0, SVG Export Plug-In . SVG Version: 6.00 Build 0)  -->
<svg version="1.1" id="Layer_1" xmlns="http://www.w3.org/2000/svg" xmlns:xlink="http://www.w3.org/1999/xlink" x="0px" y="0px"
	 viewBox="0 0 512 512" style="enable-background:new 0 0 512 512;" xml:space="preserve">
<g>
	<g>
		<path d="M492.261,430.17c-4.754-4.116-12.728-9.591-23.765-17.167c-33.558-23.039-96.024-65.925-152.671-129.615
			c-21.124-23.756-35.729-55.854-49.852-86.895c-19.5-42.857-37.919-83.337-72.624-96.619c-18.084-6.917-39.187-6.016-56.144-5.291
			c-4.454,0.19-8.636,0.343-12.151,0.366c-0.67-0.001-3.601-1.544-8.131-8.379c-5.566-8.4-10.919-20.607-16.586-33.531
			c-4.345-9.91-8.84-20.158-13.924-29.836C80.39,11.739,69.07,5.008,55.356,4.739C36.144,4.395,14.552,16.541,5.023,33.065
			c-6.546,11.354-6.701,23.811-0.424,34.177c3.109,5.133,7.23,11.256,11.594,17.738c7.105,10.555,15.158,22.517,21.069,33.446
			c7.296,13.489,7.744,18.921,7.737,20.119c-1.042,2.4-2.21,4.992-3.443,7.724c-10.165,22.545-24.088,53.422-13.148,79.101
			c15.214,35.722,36.663,72.444,62.029,106.195c29.065,38.673,61.99,72.04,97.861,99.175
			c41.292,31.237,85.378,53.234,131.035,65.383c27.919,7.428,56.37,11.145,85.137,11.145c24.738,0,49.711-2.75,74.757-8.25
			c23.213-5.098,29.904-18.565,31.828-26.139C515.843,454.013,501.333,438.021,492.261,430.17z M43.891,66.334
			c-3.951-5.87-7.694-11.43-10.368-15.793c0.87-2.245,3.901-5.729,10.473-9.316c8.727-4.761,12.738-2.72,12.858-2.493
			c4.537,8.635,8.789,18.335,12.903,27.715c13.329,30.398,27.112,61.829,55.221,61.891h0.016c4.217-0.01,8.796-0.19,13.635-0.396
			c8.459-0.361,18.174-0.769,27.11-0.032c-7.439,16.059-20.66,29.956-38.437,40.076c-20.045,11.411-43.093,16.352-64.533,14.04
			c2.806-7.793,6.316-15.58,9.226-22.032c1.389-3.079,2.7-5.987,3.91-8.795C85.009,130.089,68.378,102.71,43.891,66.334z
			 M472.065,466.405c-48.919,10.743-97.417,9.885-144.145-2.549c-41.455-11.03-81.653-31.131-119.477-59.744
			C146.85,357.518,91.738,287.146,60.462,215.34c4.179,0.405,8.397,0.612,12.635,0.612c24.129,0,48.884-6.514,70.725-18.948
			c24.154-13.75,42.218-33.035,52.499-55.616c14.641,14.843,26.687,41.302,39.259,68.933c14.446,31.747,30.817,67.73,55.295,95.256
			c59.348,66.729,123.993,111.11,158.723,134.953c9.373,6.435,17.467,11.992,20.81,14.887c4.928,4.264,6.919,7.309,7.702,8.896
			C477.004,464.93,475.067,465.746,472.065,466.405z"/>
	</g>
</g>
<g>
	<g>
		<path d="M163.604,290.149c-6.507-9.665-8.296-17.842-7.911-20.979l-33.142-4.063c-3.38,27.572,23.045,66.122,49.604,72.367
			l7.642-32.505C176.828,304.271,170.068,299.749,163.604,290.149z"/>
	</g>
</g>
<g>
</g>
<g>
</g>
<g>
</g>
<g>
</g>
<g>
</g>
<g>
</g>
<g>
</g>
<g>
</g>
<g>
</g>
<g>
</g>
<g>
</g>
<g>
</g>
<g>
</g>
<g>
</g>
<g>
</g>
</svg>
