<?xml version="1.0" encoding="iso-8859-1"?>
<!-- Generator: Adobe Illustrator 19.0.0, SVG Export Plug-In . SVG Version: 6.00 Build 0)  -->
<svg version="1.1" id="Layer_1" xmlns="http://www.w3.org/2000/svg" xmlns:xlink="http://www.w3.org/1999/xlink" x="0px" y="0px"
	 viewBox="0 0 512 512" style="enable-background:new 0 0 512 512;" xml:space="preserve">
<g>
	<g>
		<path d="M496.008,96.208h-57.347l51.862-51.99c6.253-6.253,6.253-16.44,0-22.677c-6.237-6.237-16.504-6.269-22.741-0.032
			l-51.99,51.83V15.992C415.792,7.165,408.628,0,399.8,0s-15.992,7.164-15.992,15.992v64c-15.992-11.098-41.227-16.792-63.04-16.776
			c-32.704-0.016-65.487,12.49-90.403,37.421c-30.193,30.289-76.346,91.89-120.756,158.657
			C65.312,326.061,23.508,397.002,3.534,446.177c-2.399,5.885-3.55,12.01-3.534,17.943c0.256,26.403,21.525,47.624,47.928,47.88
			c5.933,0,12.026-1.151,17.927-3.55v-0.016c49.159-19.974,120.084-61.777,186.851-106.075
			c66.767-44.41,128.368-90.595,158.657-120.788c24.932-24.916,37.437-57.651,37.421-90.339
			c0.016-21.797-5.677-47.049-16.776-63.041h64c8.828,0,15.992-7.164,15.992-15.992C512,103.372,504.836,96.208,496.008,96.208z
			 M388.734,258.959l-56.548-56.532c-6.237-6.253-16.376-6.253-22.613,0s-6.237,16.376,0,22.613l55.38,55.38
			c-31.648,26.691-79.496,61.825-129.967,95.312c-18.407,12.234-37.165,24.228-55.7,35.646l-28.002-28.05
			c-6.253-6.237-16.376-6.237-22.613,0c-6.253,6.253-6.253,16.376,0,22.613l22.421,22.421
			c-36.974,21.781-71.388,39.996-97.247,50.439l-5.965,1.215c-4.046,0.016-8.044-1.743-11.098-4.782
			c-3.039-3.054-4.798-7.052-4.782-11.098l1.183-5.949c18.167-45.001,59.506-115.654,103.084-181.189
			c5.933-8.94,11.898-17.751,17.879-26.467l42.347,42.347c6.253,6.237,16.376,6.237,22.613,0c6.253-6.253,6.253-16.376,0-22.613
			l-46.329-46.329c31.296-43.914,60.882-81.367,80.248-100.67c18.727-18.711,43.21-28.034,67.854-28.05
			c24.644,0.016,49.127,9.323,67.854,28.05c18.711,18.727,28.034,43.21,28.05,67.838
			C416.768,215.748,407.46,240.232,388.734,258.959z"/>
	</g>
</g>
<g>
</g>
<g>
</g>
<g>
</g>
<g>
</g>
<g>
</g>
<g>
</g>
<g>
</g>
<g>
</g>
<g>
</g>
<g>
</g>
<g>
</g>
<g>
</g>
<g>
</g>
<g>
</g>
<g>
</g>
</svg>
