<?xml version="1.0" encoding="iso-8859-1"?>
<!-- Generator: Adobe Illustrator 19.0.0, SVG Export Plug-In . SVG Version: 6.00 Build 0)  -->
<svg version="1.1" id="Layer_1" xmlns="http://www.w3.org/2000/svg" xmlns:xlink="http://www.w3.org/1999/xlink" x="0px" y="0px"
	 viewBox="0 0 512 512" style="enable-background:new 0 0 512 512;" xml:space="preserve">
<g>
	<g>
		<path d="M487.184,250.109c-23.329-35.706-60.73-62.777-100.328-91.438c-13.598-9.844-27.661-20.021-41.354-30.716
			c-15.787-12.328-30.867-25.002-45.452-37.257c-42.757-35.933-83.144-69.872-130.532-85.761
			c-26.968-9.043-56.421-5.615-85.175,9.905c-36.271,19.58-65.925,55.858-75.547,92.422c-18.65,70.869-2.637,161.808,41.789,237.328
			c22.242,37.809,50.512,70.358,84.025,96.745c37.079,29.194,79.764,50.094,126.867,62.122c22.34,5.703,44.121,8.542,65.006,8.542
			c31.994-0.001,61.872-6.666,88.351-19.898c40.594-20.287,70.686-55.044,84.734-97.869
			C517.961,338.156,513.911,291.013,487.184,250.109z M467.978,383.871c-11.26,34.33-35.412,62.205-68.006,78.494
			c-31.65,15.817-69.714,20.224-111.014,13.019l43.551-43.551l-23.507-23.507l-57.641,57.641
			c-35.35-11.266-67.641-28.277-96.185-50.75c-7.948-6.257-15.561-12.912-22.846-19.93l30.448-30.448l-23.507-23.507l-29.614,29.614
			C98.468,357.56,88.3,343.138,79.24,327.735c-6.098-10.366-11.629-21.114-16.574-32.118l57.952-57.952l-23.507-23.507
			l-47.521,47.52c-4.819-14.881-8.569-30.007-11.121-45.131c-6.147-36.442-5.291-71.305,2.477-100.823
			c7.279-27.662,31.066-56.447,59.189-71.628c14.263-7.701,36.043-15.275,58.815-7.641c41.402,13.882,77.692,44.379,119.712,79.692
			c14.808,12.445,30.122,25.314,46.379,38.009c14.172,11.067,28.484,21.426,42.324,31.444c37.038,26.809,72.022,52.13,91.99,82.692
			C472.654,288.648,488.019,322.776,467.978,383.871z"/>
	</g>
</g>
<g>
	<g>
		
			<rect x="224.411" y="301.411" transform="matrix(0.7071 -0.7071 0.7071 0.7071 -145.1756 285.581)" width="95.456" height="33.244"/>
	</g>
</g>
<g>
</g>
<g>
</g>
<g>
</g>
<g>
</g>
<g>
</g>
<g>
</g>
<g>
</g>
<g>
</g>
<g>
</g>
<g>
</g>
<g>
</g>
<g>
</g>
<g>
</g>
<g>
</g>
<g>
</g>
</svg>
