<?xml version="1.0" encoding="iso-8859-1"?>
<!-- Generator: Adobe Illustrator 19.0.0, SVG Export Plug-In . SVG Version: 6.00 Build 0)  -->
<svg version="1.1" id="Layer_1" xmlns="http://www.w3.org/2000/svg" xmlns:xlink="http://www.w3.org/1999/xlink" x="0px" y="0px"
	 viewBox="0 0 512.004 512.004" style="enable-background:new 0 0 512.004 512.004;" xml:space="preserve">
<g>
	<g>
		<g>
			<path d="M434.067,127.467c-28.729-22.889-63.672-38.582-102.17-47.352c4.639-4.351,6.704-11.072,4.605-17.505
				c-2.895-8.888-12.443-13.764-21.331-10.869l-38.176,12.392c4.097-13.391,11.055-25.53,20.739-35.23
				c6.619-6.603,6.619-17.336,0-23.938c-6.619-6.619-17.336-6.619-23.938,0c-16.354,16.337-27.917,37.55-32.505,61.217
				l-44.457-14.441c-8.888-2.895-18.436,1.981-21.331,10.869c-2.099,6.45-0.034,13.171,4.605,17.505
				c-38.515,8.753-73.44,24.463-102.17,47.352C31.144,164.542,1.873,221.172,2.059,291.92
				c-0.203,70.749,29.085,127.378,75.878,164.454c46.726,37.211,109.737,55.614,178.065,55.63
				c68.345-0.017,131.356-18.419,178.065-55.63c46.776-37.076,76.064-93.705,75.878-164.454
				C510.131,221.172,480.86,164.542,434.067,127.467z M412.956,429.896c-39.124,31.269-94.619,48.266-156.954,48.232
				c-62.352,0.017-117.846-16.963-156.954-48.232c-39.056-31.404-62.944-76.352-63.13-137.976
				c0.203-61.64,24.074-106.588,63.13-137.993c31.675-25.327,74.185-41.088,122.265-46.235l-18.809,25.902
				c-5.502,7.568-3.826,18.148,3.741,23.651c7.568,5.502,18.148,3.826,23.651-3.741l26.105-35.941l26.105,35.941
				c5.502,7.568,16.083,9.244,23.651,3.741c7.568-5.502,9.243-16.083,3.741-23.651l-18.809-25.902
				c48.08,5.147,90.59,20.908,122.265,46.235c39.056,31.404,62.927,76.352,63.13,137.993
				C475.9,353.544,452.012,398.492,412.956,429.896z"/>
			<path d="M380.722,172.652c-7.788-5.18-18.301-3.081-23.481,4.706s-3.081,18.284,4.706,23.481
				c28.001,19.08,46.065,46.201,46.421,91.081c0,9.345,7.584,16.93,16.93,16.93s16.93-7.584,16.93-16.93
				C442.566,236.933,416.917,196.336,380.722,172.652z"/>
		</g>
	</g>
</g>
<g>
</g>
<g>
</g>
<g>
</g>
<g>
</g>
<g>
</g>
<g>
</g>
<g>
</g>
<g>
</g>
<g>
</g>
<g>
</g>
<g>
</g>
<g>
</g>
<g>
</g>
<g>
</g>
<g>
</g>
</svg>
